<svg preserveAspectRatio="none" width="100%" height="100%" overflow="visible" style="display: block;" viewBox="0 0 1232 257.5" fill="none" xmlns="http://www.w3.org/2000/svg">
<path id="Rectangle 3" d="M18.0743 36.5605C25.6117 18.0226 43.4762 5.76443 63.4845 5.40119L361 0H618.5H839.5L1152.64 5.61693C1166.29 5.86162 1179.23 11.6698 1188.49 21.6949L1208.53 43.4023C1213.45 48.7367 1217.15 55.0795 1219.38 61.9897L1225.5 81L1230.12 97.3317C1231.37 101.756 1232 106.332 1232 110.93V134.699C1232 137.561 1231.75 140.418 1231.27 143.238L1226.4 171.287C1225.8 174.753 1224.84 178.145 1223.53 181.409L1211.38 211.609C1209.14 217.158 1205.93 222.261 1201.9 226.676L1195.87 233.273C1186.69 243.321 1173.81 249.191 1160.2 249.529L839.5 257.5H615H361L69.0797 249.572C55.6014 249.206 42.8422 243.412 33.6968 233.505L20.6043 219.321C14.9575 213.204 10.9276 205.774 8.88017 197.704L4.45754 180.274C3.82015 177.762 3.37903 175.204 3.13819 172.623L0 139V107.783C0 105.264 0.190227 102.75 0.569058 100.26L3.5 81L12 51.5L18.0743 36.5605Z" fill="var(--fill-0, black)"/>
</svg>
