<svg preserveAspectRatio="none" width="100%" height="100%" overflow="visible" style="display: block;" viewBox="0 0 1216.57 460.177" fill="none" xmlns="http://www.w3.org/2000/svg">
<path id="Rectangle 2" d="M26.7871 107.908C41.0266 68.1542 78.7027 41.6293 120.93 41.6293H574.671C585.032 41.6293 595.331 40.0189 605.198 36.8558L642.155 25.0083C661.165 18.9141 681.564 18.6491 700.726 24.2476L760.219 41.6293L808.191 60.0643C844.023 73.8337 884.574 65.8774 912.546 39.5893L916.76 35.6284C930.638 22.586 947.952 13.7777 966.665 10.2394L1011.61 1.74104C1027.47 -1.25687 1043.81 -0.37345 1059.25 4.31589L1126.43 24.7195C1160.85 35.1723 1187 63.3029 1194.92 98.3889L1202.73 133.031L1215.74 233.444C1217.53 247.218 1216.42 261.214 1212.5 274.538L1189.66 352.098C1184.71 368.914 1175.43 384.134 1162.74 396.23L1141.03 416.923C1113.29 443.376 1072.86 451.639 1036.96 438.196L968.952 412.729L907.088 388.262C889.741 381.402 870.821 379.531 852.466 382.859L814.772 389.696C807.242 391.062 799.893 393.287 792.871 396.329L731.22 423.033C726.331 425.15 721.281 426.874 716.118 428.187L602.436 457.093C594.382 459.141 586.103 460.177 577.793 460.177H129.98C94.1959 460.177 61.1392 441.056 43.2971 410.038L20.2992 370.055C13.352 357.977 9.00537 344.581 7.53822 330.725L0.555915 264.783C-0.179747 257.835 -0.185279 250.829 0.539413 243.88L8.51231 167.43C9.34325 159.463 11.1286 151.623 13.83 144.082L26.7871 107.908Z" fill="var(--fill-0, black)"/>
</svg>
