<svg preserveAspectRatio="none" width="100%" height="100%" overflow="visible" style="display: block;" viewBox="0 0 1223.81 399" fill="none" xmlns="http://www.w3.org/2000/svg">
<path id="Rectangle 2" d="M27.4717 65.7738C41.8571 26.2819 79.4018 0 121.432 0H1091.52C1127.9 0 1161.4 19.7556 1179.02 51.5866L1203.81 96.3959C1210.21 107.97 1214.26 120.699 1215.71 133.846L1223.21 201.886C1224.02 209.228 1224.02 216.637 1223.19 223.978L1216.39 284.692C1214.5 301.581 1208.34 317.709 1198.48 331.554L1180.38 356.991C1161.62 383.348 1131.26 399 1098.91 399H115.004C76.2095 399 40.9158 376.563 24.4537 341.434L17.0177 325.567C12.3255 315.554 9.3264 304.833 8.14256 293.839L0.574755 223.558C-0.185841 216.495 -0.191558 209.37 0.5577 202.305L8.63933 126.104C9.49698 118.018 11.3379 110.066 14.1212 102.425L27.4717 65.7738Z" fill="var(--fill-0, black)"/>
</svg>
